<svg width="51" height="74" viewBox="0 0 51 74" fill="none" xmlns="http://www.w3.org/2000/svg">
<path d="M2.08 16.328C2.08 16.328 2.064 16.3173 2.032 16.296C2 16.2853 1.95733 16.2747 1.904 16.264C1.86133 16.2533 1.808 16.248 1.744 16.248C1.57333 16.2053 1.45067 16.1093 1.376 15.96C1.30133 15.8213 1.28533 15.6667 1.328 15.496C1.37067 15.4533 1.40267 15.3627 1.424 15.224C1.44533 15.0853 1.456 14.9733 1.456 14.888C1.49867 14.8027 1.52533 14.744 1.536 14.712C1.54667 14.6693 1.57333 14.5627 1.616 14.392C1.648 14.2107 1.70133 13.96 1.776 13.64C1.86133 13.3093 1.952 12.9573 2.048 12.584C2.15467 12.2107 2.256 11.8533 2.352 11.512C2.448 11.1707 2.53333 10.8827 2.608 10.648C2.69333 10.4133 2.752 10.28 2.784 10.248C2.784 10.248 2.784 10.232 2.784 10.2C2.784 10.1573 2.784 10.1147 2.784 10.072C2.784 10.072 2.78933 10.024 2.8 9.928C2.82133 9.82133 2.87467 9.704 2.96 9.576C3.00267 9.45867 3.04 9.33067 3.072 9.192C3.104 9.05333 3.12 8.96267 3.12 8.92C3.16267 8.86667 3.22133 8.73867 3.296 8.536C3.38133 8.32267 3.46133 8.11467 3.536 7.912C3.6 7.74133 3.66933 7.56 3.744 7.368C3.82933 7.176 3.89867 7.01067 3.952 6.872C4.016 6.73333 4.048 6.664 4.048 6.664C4.048 6.62133 4.048 6.6 4.048 6.6C4.048 6.58933 4.048 6.584 4.048 6.584C4.09067 6.54133 4.192 6.328 4.352 5.944C4.52267 5.54933 4.752 5.04267 5.04 4.424C5.08267 4.33867 5.136 4.24267 5.2 4.136C5.264 4.02933 5.296 3.95467 5.296 3.912C5.34933 3.82667 5.424 3.78933 5.52 3.8C5.616 3.8 5.712 3.832 5.808 3.896C5.91467 3.96 5.99467 4.05067 6.048 4.168L6.208 4.424L5.632 5.576C5.46133 5.87467 5.31733 6.14667 5.2 6.392C5.09333 6.63733 5.04 6.78133 5.04 6.824C5.04 6.824 5.008 6.90933 4.944 7.08C4.88 7.25067 4.80533 7.45333 4.72 7.688C4.63467 7.92267 4.56 8.136 4.496 8.328C4.37867 8.65867 4.26667 8.93067 4.16 9.144C4.064 9.35733 4.016 9.48533 4.016 9.528C4.016 9.50667 4.13333 9.49067 4.368 9.48C4.60267 9.46933 4.90133 9.464 5.264 9.464C5.62667 9.464 5.99467 9.464 6.368 9.464C6.752 9.45333 7.088 9.448 7.376 9.448C7.67467 9.43733 7.87733 9.42133 7.984 9.4L8.816 9.32L9.36 7.672C9.44533 7.37333 9.55733 7.01067 9.696 6.584C9.83467 6.15733 9.95733 5.79467 10.064 5.496C10.2347 5.00533 10.368 4.70133 10.464 4.584C10.56 4.46667 10.672 4.408 10.8 4.408C10.832 4.408 10.8747 4.41867 10.928 4.44C10.992 4.45067 11.0507 4.47733 11.104 4.52C11.168 4.552 11.2107 4.6 11.232 4.664C11.36 4.78133 11.4187 4.91467 11.408 5.064C11.408 5.21333 11.3227 5.41067 11.152 5.656C10.9813 5.944 10.8373 6.25867 10.72 6.6C10.6133 6.93067 10.5173 7.20267 10.432 7.416C10.432 7.544 10.416 7.65067 10.384 7.736C10.352 7.81067 10.3147 7.86933 10.272 7.912C10.2507 7.93333 10.208 8.01333 10.144 8.152C10.08 8.29067 10.0213 8.42933 9.968 8.568C9.91467 8.70667 9.888 8.792 9.888 8.824C9.888 8.89867 9.872 8.98933 9.84 9.096C9.808 9.20267 9.77067 9.27733 9.728 9.32C9.70667 9.384 9.65867 9.544 9.584 9.8C9.50933 10.056 9.424 10.36 9.328 10.712C9.232 11.0533 9.13067 11.3893 9.024 11.72C8.91733 12.04 8.82133 12.3067 8.736 12.52C8.736 12.5947 8.70933 12.6907 8.656 12.808C8.60267 12.9147 8.576 13.0107 8.576 13.096C8.53333 13.224 8.48 13.384 8.416 13.576C8.352 13.768 8.32 13.8907 8.32 13.944C8.26667 14.1893 8.208 14.44 8.144 14.696C8.09067 14.952 8.04267 15.1707 8 15.352C7.968 15.544 7.952 15.656 7.952 15.688C7.90933 15.7307 7.84533 15.736 7.76 15.704C7.67467 15.672 7.57333 15.6347 7.456 15.592C7.25333 15.4747 7.13067 15.3467 7.088 15.208C7.056 15.08 7.09867 14.8933 7.216 14.648C7.26933 14.5627 7.33333 14.3547 7.408 14.024C7.49333 13.6827 7.57867 13.3467 7.664 13.016C7.728 12.856 7.79733 12.6427 7.872 12.376C7.94667 12.0987 8.02133 11.8213 8.096 11.544C8.17067 11.256 8.23467 11.016 8.288 10.824C8.34133 10.6213 8.37867 10.5093 8.4 10.488C8.4 10.4453 8.4 10.408 8.4 10.376C8.4 10.344 8.4 10.328 8.4 10.328C8.37867 10.3067 8.24533 10.2907 8 10.28C7.75467 10.2587 7.45067 10.2533 7.088 10.264C6.72533 10.264 6.34667 10.2747 5.952 10.296C5.568 10.3067 5.22133 10.3333 4.912 10.376C4.79467 10.376 4.66133 10.376 4.512 10.376C4.36267 10.376 4.24533 10.376 4.16 10.376C4.04267 10.376 3.94133 10.376 3.856 10.376C3.78133 10.376 3.744 10.376 3.744 10.376C3.73333 10.408 3.696 10.52 3.632 10.712C3.568 10.904 3.49333 11.1387 3.408 11.416C3.32267 11.6827 3.232 11.96 3.136 12.248C3.05067 12.5253 2.976 12.7813 2.912 13.016C2.85867 13.24 2.82133 13.4 2.8 13.496C2.75733 13.688 2.69867 13.928 2.624 14.216C2.56 14.504 2.48533 14.7973 2.4 15.096C2.32533 15.4053 2.256 15.672 2.192 15.896C2.13867 16.12 2.10133 16.264 2.08 16.328ZM10.7433 14.424C10.7006 14.3387 10.6473 14.2747 10.5833 14.232C10.5193 14.1787 10.4873 14.1307 10.4873 14.088C10.4873 14.0453 10.4819 14.0027 10.4713 13.96C10.4713 13.9067 10.4499 13.8587 10.4073 13.816C10.3539 13.752 10.3593 13.608 10.4233 13.384C10.4873 13.1493 10.5939 12.8667 10.7433 12.536C10.8926 12.1947 11.0686 11.8373 11.2713 11.464C11.3566 11.3787 11.4419 11.2667 11.5273 11.128C11.6126 10.9893 11.6766 10.8987 11.7193 10.856C11.7193 10.8133 11.7353 10.776 11.7673 10.744C11.7993 10.7013 11.8366 10.68 11.8793 10.68V10.584C11.8793 10.5307 11.9273 10.44 12.0233 10.312C12.1299 10.184 12.2579 10.0453 12.4073 9.896C12.5566 9.736 12.7113 9.58667 12.8713 9.448C13.0313 9.29867 13.1646 9.192 13.2713 9.128C13.4953 8.97867 13.7246 8.888 13.9593 8.856C14.2046 8.824 14.4126 8.87733 14.5833 9.016C14.6153 9.048 14.6686 9.10133 14.7433 9.176C14.8179 9.25067 14.9033 9.336 14.9993 9.432C15.1059 9.51733 15.2126 9.608 15.3193 9.704L15.9113 10.232L15.6233 11.032C15.4846 11.4587 15.4473 11.832 15.5113 12.152C15.5859 12.472 15.6926 12.7493 15.8313 12.984C15.8846 13.1013 15.9913 13.2133 16.1513 13.32C16.3219 13.4267 16.4819 13.4907 16.6313 13.512C16.7166 13.5227 16.7966 13.5547 16.8713 13.608C16.9459 13.6613 16.9833 13.7467 16.9833 13.864C16.9833 13.9707 16.9619 14.056 16.9193 14.12C16.8766 14.184 16.8019 14.2267 16.6953 14.248C16.3433 14.2907 16.0126 14.2053 15.7033 13.992C15.4046 13.7787 15.1273 13.4267 14.8713 12.936C14.8286 12.872 14.7699 12.7547 14.6953 12.584C14.6313 12.4027 14.5939 12.2853 14.5833 12.232C14.5406 12.2853 14.4606 12.3867 14.3433 12.536C14.2259 12.6747 14.1353 12.776 14.0713 12.84C13.3139 13.608 12.6579 14.1253 12.1033 14.392C11.5593 14.648 11.1059 14.6587 10.7433 14.424ZM11.3193 13.528C11.3193 13.6027 11.4313 13.6027 11.6553 13.528C11.8899 13.4427 12.1406 13.2933 12.4073 13.08C12.7699 12.7707 13.1326 12.4293 13.4953 12.056C13.8686 11.6827 14.1673 11.336 14.3913 11.016L14.7433 10.44C14.6366 10.1947 14.5193 10.0293 14.3913 9.944C14.2739 9.848 14.1726 9.8 14.0873 9.8C13.9486 9.8 13.7406 9.928 13.4633 10.184C13.1966 10.44 12.9086 10.7813 12.5993 11.208C12.2899 11.6347 11.9966 12.104 11.7193 12.616C11.6126 12.8293 11.5166 13.0373 11.4313 13.24C11.3566 13.432 11.3193 13.528 11.3193 13.528ZM18.1276 14.216C18.0103 14.1413 17.9036 14.0453 17.8076 13.928C17.7116 13.8 17.6636 13.64 17.6636 13.448C17.6636 13.3413 17.685 13.16 17.7276 12.904C17.7703 12.648 17.829 12.36 17.9036 12.04C17.9783 11.72 18.053 11.4213 18.1276 11.144C18.2343 10.952 18.325 10.76 18.3996 10.568C18.4743 10.376 18.5116 10.2587 18.5116 10.216C18.533 10.088 18.5596 9.93867 18.5916 9.768C18.6343 9.59733 18.677 9.44267 18.7196 9.304C18.7623 9.16533 18.7943 9.08533 18.8156 9.064C18.869 9.01067 18.933 8.97867 19.0076 8.968C19.0823 8.94667 19.157 8.95733 19.2316 9C19.317 9.032 19.381 9.10133 19.4236 9.208C19.541 9.336 19.5996 9.49067 19.5996 9.672C19.5996 9.84267 19.541 10.0987 19.4236 10.44C19.3276 10.6533 19.2316 10.904 19.1356 11.192C19.0396 11.48 18.9543 11.7467 18.8796 11.992C18.8156 12.2267 18.7783 12.3867 18.7676 12.472L18.4476 12.568C18.629 12.3973 18.7996 12.2213 18.9596 12.04C19.1196 11.848 19.237 11.6987 19.3116 11.592C19.493 11.3467 19.6476 11.144 19.7756 10.984C19.9143 10.8133 20.0903 10.6107 20.3036 10.376C20.517 10.1307 20.725 9.98133 20.9276 9.928C21.141 9.864 21.3063 9.832 21.4236 9.832C21.6583 9.87467 21.845 9.99733 21.9836 10.2C22.133 10.392 22.229 10.68 22.2716 11.064C22.2716 11.2133 22.2556 11.3893 22.2236 11.592C22.2023 11.7947 22.1916 11.896 22.1916 11.896C22.1916 11.896 22.277 11.784 22.4476 11.56C22.629 11.336 22.869 11.0907 23.1676 10.824C23.3703 10.6747 23.5676 10.5893 23.7596 10.568C23.9516 10.536 24.1223 10.6 24.2716 10.76C24.549 10.9093 24.7303 11.1387 24.8156 11.448C24.901 11.7467 24.9223 12.1307 24.8796 12.6C24.8476 12.8773 24.8423 13.0853 24.8636 13.224C24.885 13.352 24.917 13.48 24.9596 13.608C25.045 13.6507 25.061 13.7413 25.0076 13.88C24.9543 14.008 24.8903 14.072 24.8156 14.072C24.709 14.072 24.5863 14.0507 24.4476 14.008C24.3196 13.9653 24.2023 13.896 24.0956 13.8C23.9996 13.6933 23.9516 13.5493 23.9516 13.368V12.376C23.9516 12.1413 23.941 11.9493 23.9196 11.8C23.909 11.6507 23.8823 11.56 23.8396 11.528C23.7223 11.464 23.5516 11.5333 23.3276 11.736C23.1036 11.9387 22.8636 12.2107 22.6076 12.552C22.3516 12.8933 22.1116 13.2453 21.8876 13.608C21.685 13.9387 21.557 14.1307 21.5036 14.184C21.461 14.2267 21.381 14.2107 21.2636 14.136C21.029 14.0613 20.8796 13.96 20.8156 13.832C20.7623 13.6933 20.757 13.5387 20.7996 13.368C20.853 13.1867 20.917 12.9413 20.9916 12.632C21.077 12.3227 21.157 12.024 21.2316 11.736C21.3063 11.4373 21.3543 11.224 21.3756 11.096C21.333 11.0107 21.2583 10.984 21.1516 11.016C21.0556 11.0373 20.9543 11.0853 20.8476 11.16C20.7196 11.2453 20.565 11.4053 20.3836 11.64C20.2023 11.8747 20.0156 12.1467 19.8236 12.456C19.6956 12.6587 19.5623 12.8613 19.4236 13.064C19.285 13.256 19.157 13.4267 19.0396 13.576C18.9223 13.7253 18.821 13.8373 18.7356 13.912C18.5863 14.1467 18.485 14.2747 18.4316 14.296C18.3783 14.3173 18.277 14.2907 18.1276 14.216ZM30.2363 14.808C29.8843 14.68 29.6123 14.44 29.4203 14.088C29.2283 13.7253 29.1056 13.3733 29.0523 13.032C29.0416 13.032 29.0096 13.0533 28.9563 13.096C28.9136 13.128 28.8603 13.1813 28.7963 13.256C28.6469 13.4053 28.4603 13.592 28.2363 13.816C28.0123 14.0293 27.7776 14.2213 27.5323 14.392C27.2976 14.552 27.0736 14.6213 26.8603 14.6C26.7749 14.5467 26.6843 14.488 26.5883 14.424C26.5029 14.3493 26.4176 14.2747 26.3323 14.2C26.2896 14.1573 26.2523 14.1147 26.2203 14.072C26.1989 14.0293 26.1776 13.9813 26.1562 13.928C26.0389 13.608 25.9749 13.3253 25.9643 13.08C25.9536 12.824 25.9803 12.5733 26.0443 12.328C26.1189 12.072 26.2043 11.7893 26.3003 11.48C26.3109 11.448 26.3483 11.3147 26.4123 11.08C26.4869 10.8453 26.5723 10.5787 26.6683 10.28C26.7643 9.98133 26.8549 9.71467 26.9403 9.48C27.0363 9.24533 27.1056 9.10667 27.1483 9.064C27.1803 9.064 27.2123 9.064 27.2443 9.064C27.2869 9.05333 27.3243 9.048 27.3563 9.048C27.4629 9.048 27.5429 9.08533 27.5963 9.16C27.6389 9.224 27.6923 9.272 27.7563 9.304C27.8309 9.336 27.8843 9.37867 27.9163 9.432C27.9696 9.53867 27.9323 9.768 27.8043 10.12C27.6763 10.4613 27.5376 10.8507 27.3883 11.288C27.2496 11.6827 27.1323 12.0827 27.0363 12.488C26.9403 12.8827 26.9349 13.2133 27.0203 13.48C27.0949 13.48 27.1963 13.416 27.3243 13.288C27.4629 13.1493 27.5696 13.0533 27.6443 13C27.7509 12.936 27.8896 12.8133 28.0603 12.632C28.2416 12.44 28.4176 12.248 28.5883 12.056C28.7589 11.8533 28.8763 11.6987 28.9403 11.592C28.9829 11.528 29.0469 11.4107 29.1323 11.24C29.2176 11.0587 29.3029 10.8667 29.3883 10.664C29.4843 10.4507 29.5589 10.2533 29.6123 10.072C29.6763 9.89067 29.7029 9.76267 29.6923 9.688C29.6816 9.58133 29.6923 9.50133 29.7243 9.448C29.7669 9.384 29.8309 9.32533 29.9163 9.272C29.9696 9.272 30.0283 9.272 30.0923 9.272C30.1563 9.272 30.2149 9.27733 30.2683 9.288C30.3323 9.36267 30.4016 9.432 30.4763 9.496C30.5509 9.56 30.6256 9.62933 30.7003 9.704C30.7536 9.90667 30.7216 10.1787 30.6043 10.52C30.4869 10.8613 30.3696 11.2293 30.2523 11.624C30.1349 12.0187 30.0603 12.4187 30.0283 12.824C29.9963 13.2187 30.1029 13.5653 30.3483 13.864C30.5723 13.768 30.7429 13.6773 30.8603 13.592C30.9883 13.496 31.1109 13.4 31.2283 13.304C31.3456 13.1973 31.4949 13.0907 31.6763 12.984C31.7829 13.048 31.8629 13.176 31.9163 13.368C31.9696 13.56 31.9963 13.7147 31.9963 13.832C31.9536 13.864 31.9109 13.896 31.8683 13.928C31.8363 13.9493 31.8096 13.9813 31.7883 14.024C31.7243 14.1627 31.5963 14.3013 31.4043 14.44C31.2123 14.5787 31.0096 14.6907 30.7963 14.776C30.5829 14.8507 30.3963 14.8613 30.2363 14.808ZM34.5456 14.632C34.311 14.632 34.135 14.6213 34.0176 14.6C33.9003 14.5787 33.8096 14.5467 33.7456 14.504C33.6816 14.4613 33.607 14.4027 33.5216 14.328C33.479 14.2427 33.4256 14.152 33.3616 14.056C33.2976 13.96 33.2443 13.8907 33.2016 13.848C33.159 13.688 33.1376 13.48 33.1376 13.224C33.1483 12.968 33.1803 12.6907 33.2336 12.392C33.2976 12.0933 33.383 11.816 33.4896 11.56C33.5323 11.4747 33.5696 11.3893 33.6016 11.304C33.6336 11.2187 33.6496 11.176 33.6496 11.176C33.6496 11.1227 33.7136 10.9947 33.8416 10.792C33.9803 10.5893 34.1296 10.376 34.2896 10.152C34.4603 9.928 34.599 9.768 34.7056 9.672C34.7803 9.58667 34.8923 9.496 35.0416 9.4C35.2016 9.304 35.3403 9.23467 35.4576 9.192C35.575 9.14933 35.6923 9.112 35.8096 9.08C35.9376 9.048 36.0816 9.032 36.2416 9.032C36.391 9.032 36.5296 9.064 36.6576 9.128C36.7856 9.192 36.9083 9.304 37.0256 9.464C37.2176 9.656 37.3243 9.848 37.3456 10.04C37.3776 10.2213 37.3723 10.408 37.3296 10.6C37.2763 10.8133 37.207 10.9787 37.1216 11.096C37.0363 11.2027 36.9403 11.2507 36.8336 11.24C36.727 11.2293 36.6043 11.1493 36.4656 11C36.423 10.9147 36.4016 10.8453 36.4016 10.792C36.4016 10.728 36.423 10.6373 36.4656 10.52C36.5083 10.3707 36.5083 10.216 36.4656 10.056C36.423 9.896 36.3536 9.816 36.2576 9.816C36.119 9.816 35.9643 9.88 35.7936 10.008C35.6336 10.1253 35.4683 10.2747 35.2976 10.456C35.223 10.5413 35.1163 10.6747 34.9776 10.856C34.8496 11.0267 34.7216 11.2187 34.5936 11.432C34.4656 11.6347 34.359 11.832 34.2736 12.024C34.1563 12.376 34.0603 12.6587 33.9856 12.872C33.9216 13.0853 33.8896 13.192 33.8896 13.192C33.8896 13.2347 33.9003 13.2773 33.9216 13.32C33.9536 13.352 33.9696 13.3893 33.9696 13.432C33.9696 13.56 34.0443 13.6613 34.1936 13.736C34.311 13.8107 34.4496 13.8533 34.6096 13.864C34.7696 13.864 34.967 13.8107 35.2016 13.704C35.3723 13.6187 35.5323 13.5067 35.6816 13.368C35.8416 13.2293 36.007 13.1067 36.1776 13C36.295 12.9253 36.3856 12.8613 36.4496 12.808C36.5243 12.7547 36.5616 12.7493 36.5616 12.792C36.5616 12.8347 36.5776 12.856 36.6096 12.856C36.6416 12.856 36.679 12.8347 36.7216 12.792C36.7856 12.7067 36.855 12.6533 36.9296 12.632C37.0043 12.6 37.0683 12.5893 37.1216 12.6C37.1856 12.6 37.2176 12.616 37.2176 12.648C37.1963 12.744 37.2176 12.824 37.2816 12.888C37.2816 12.9307 37.2656 12.9893 37.2336 13.064C37.2123 13.128 37.1803 13.1813 37.1376 13.224C37.0843 13.2987 37.0043 13.384 36.8976 13.48C36.8016 13.576 36.711 13.6613 36.6256 13.736C36.5403 13.8 36.4976 13.832 36.4976 13.832C36.455 13.8213 36.4123 13.832 36.3696 13.864C36.3376 13.896 36.3003 13.9333 36.2576 13.976C36.1723 14.0507 36.0923 14.1093 36.0176 14.152C35.943 14.184 35.8843 14.2 35.8416 14.2C35.767 14.2427 35.7083 14.2693 35.6656 14.28C35.6336 14.2907 35.6176 14.3173 35.6176 14.36C35.511 14.4667 35.3776 14.5413 35.2176 14.584C35.0683 14.616 34.8443 14.632 34.5456 14.632ZM39.307 14.632C39.2323 14.6107 39.131 14.5893 39.003 14.568C38.875 14.5467 38.7577 14.5093 38.651 14.456C38.555 14.392 38.507 14.312 38.507 14.216C38.507 14.1307 38.5123 14.056 38.523 13.992C38.5443 13.9173 38.587 13.8533 38.651 13.8C38.6617 13.7787 38.667 13.7627 38.667 13.752C38.667 13.7413 38.6723 13.7307 38.683 13.72C38.683 13.6667 38.6723 13.6187 38.651 13.576C38.6297 13.5333 38.6297 13.48 38.651 13.416C38.6937 13.2987 38.7257 13.2027 38.747 13.128C38.779 13.0427 38.795 12.936 38.795 12.808C38.795 12.7867 38.795 12.7653 38.795 12.744C38.795 12.712 38.8003 12.6853 38.811 12.664C38.8963 12.4293 38.9657 12.1893 39.019 11.944C39.0723 11.6987 39.1523 11.464 39.259 11.24C39.387 10.9627 39.5523 10.6 39.755 10.152C39.9577 9.69333 40.1283 9.272 40.267 8.888C40.3097 8.77067 40.3577 8.696 40.411 8.664C40.475 8.62133 40.5443 8.60533 40.619 8.616C40.747 8.62667 40.875 8.70133 41.003 8.84C41.131 8.968 41.227 9.08 41.291 9.176C41.1843 9.37867 41.0563 9.61867 40.907 9.896C40.7683 10.1627 40.635 10.424 40.507 10.68C40.3897 10.9253 40.3043 11.128 40.251 11.288C40.4003 11.2987 40.5763 11.2987 40.779 11.288C40.9923 11.2667 41.2003 11.2667 41.403 11.288C41.6377 11.3093 41.8457 11.3093 42.027 11.288C42.2083 11.2667 42.411 11.24 42.635 11.208C42.6883 11.048 42.7417 10.8667 42.795 10.664C42.859 10.4613 42.923 10.2533 42.987 10.04C43.0617 9.82667 43.1523 9.62933 43.259 9.448C43.3657 9.26667 43.499 9.128 43.659 9.032C43.7443 9.01067 43.8083 9.01067 43.851 9.032C43.8937 9.04267 43.9523 9.07467 44.027 9.128C44.1657 9.23467 44.267 9.32 44.331 9.384C44.4057 9.43733 44.4323 9.50133 44.411 9.576C44.3897 9.65067 44.3203 9.77333 44.203 9.944C44.1283 10.0613 44.075 10.2 44.043 10.36C44.011 10.5093 43.9523 10.6373 43.867 10.744C43.8457 10.7653 43.803 10.8613 43.739 11.032C43.675 11.2027 43.6003 11.4107 43.515 11.656C43.4297 11.9013 43.3443 12.1467 43.259 12.392C43.1737 12.6373 43.099 12.8507 43.035 13.032C42.9817 13.2133 42.955 13.32 42.955 13.352C42.9443 13.4907 42.923 13.6347 42.891 13.784C42.859 13.9227 42.843 14.0667 42.843 14.216C42.843 14.3013 42.8163 14.3653 42.763 14.408C42.7203 14.44 42.6617 14.456 42.587 14.456C42.4803 14.456 42.363 14.4293 42.235 14.376C42.107 14.3227 42.011 14.2747 41.947 14.232C41.9043 14.2 41.867 14.1467 41.835 14.072C41.8137 13.9973 41.7977 13.9333 41.787 13.88C41.851 13.6133 41.9257 13.3627 42.011 13.128C42.107 12.8827 42.1923 12.632 42.267 12.376C42.2883 12.3333 42.299 12.2907 42.299 12.248C42.299 12.2053 42.2883 12.1627 42.267 12.12C41.915 12.0667 41.5577 12.056 41.195 12.088C40.8323 12.12 40.475 12.1467 40.123 12.168C40.0697 12.2213 40.0057 12.3493 39.931 12.552C39.867 12.744 39.8083 12.9467 39.755 13.16C39.7017 13.3627 39.659 13.5173 39.627 13.624C39.6377 13.6987 39.627 13.8053 39.595 13.944C39.563 14.0827 39.5203 14.2213 39.467 14.36C39.4137 14.488 39.3603 14.5787 39.307 14.632ZM49.164 15.016C49.0573 15.0693 48.9347 15.0373 48.796 14.92C48.6573 14.8027 48.5613 14.7067 48.508 14.632C48.412 14.504 48.3427 14.328 48.3 14.104C48.2573 13.88 48.236 13.6933 48.236 13.544C48.236 13.2667 48.2147 13.1067 48.172 13.064C48.14 13.0213 48.0707 13.0587 47.964 13.176C47.868 13.2827 47.724 13.432 47.532 13.624C47.4467 13.7093 47.308 13.8213 47.116 13.96C46.924 14.0987 46.7267 14.216 46.524 14.312C46.3213 14.408 46.1507 14.456 46.012 14.456C45.916 14.4453 45.82 14.392 45.724 14.296C45.628 14.2 45.5427 14.0933 45.468 13.976C45.404 13.848 45.356 13.7413 45.324 13.656C45.2707 13.496 45.2653 13.2347 45.308 12.872C45.3613 12.4987 45.4467 12.088 45.564 11.64C45.692 11.1813 45.836 10.744 45.996 10.328C46.1667 9.90133 46.3373 9.55467 46.508 9.288C46.6893 9.01067 46.8653 8.872 47.036 8.872C47.1533 8.872 47.244 8.94133 47.308 9.08C47.3827 9.208 47.4413 9.31467 47.484 9.4C47.5373 9.50667 47.5533 9.576 47.532 9.608C47.5213 9.64 47.4787 9.69867 47.404 9.784C47.3187 9.89067 47.2173 10.072 47.1 10.328C46.9827 10.5733 46.86 10.8453 46.732 11.144C46.6147 11.432 46.508 11.7093 46.412 11.976C46.316 12.2427 46.2467 12.4453 46.204 12.584C46.1827 12.6693 46.1507 12.7867 46.108 12.936C46.076 13.0853 46.0653 13.2027 46.076 13.288C46.076 13.2987 46.0813 13.3253 46.092 13.368C46.1027 13.4 46.1453 13.416 46.22 13.416C46.4547 13.416 46.6893 13.32 46.924 13.128C47.1693 12.9253 47.4093 12.664 47.644 12.344C47.8893 12.024 48.1187 11.688 48.332 11.336C48.5453 10.984 48.7427 10.648 48.924 10.328C49.116 10.008 49.2813 9.74667 49.42 9.544C49.5587 9.33067 49.6707 9.21867 49.756 9.208C49.8307 9.19733 49.916 9.208 50.012 9.24C50.1187 9.26133 50.2093 9.29867 50.284 9.352C50.3587 9.40533 50.3907 9.48 50.38 9.576C50.252 9.97067 50.0973 10.3653 49.916 10.76C49.7347 11.144 49.564 11.5333 49.404 11.928C49.2547 12.3227 49.148 12.728 49.084 13.144C49.0413 13.4 49.0573 13.6507 49.132 13.896C49.2173 14.1413 49.3507 14.36 49.532 14.552C49.6387 14.6587 49.628 14.76 49.5 14.856C49.372 14.952 49.26 15.0053 49.164 15.016Z" fill="black"/>
<path d="M26.1609 41.5577C26.2681 40.635 26.5408 39.4556 26.8064 38.5684C26.8894 38.2903 26.9334 38.4513 26.995 38.2608C27.1162 37.8885 27.1685 37.5255 27.3071 37.1594C27.3535 37.0387 27.4323 37.2263 27.4781 37.0996C27.7309 36.4038 27.9089 35.7219 28.2219 35.0063C28.4893 34.4186 28.7491 33.8428 29.2689 33.2189C31.6773 30.651 34.8749 30.0009 37.9081 29.595C39.1279 29.4538 40.6115 29.4835 41.8815 29.4907C42.0346 29.4918 41.9488 29.3772 41.9783 29.3694C42.4321 29.255 42.2784 29.4701 42.5635 29.5229C42.9424 29.5967 43.3281 29.6659 43.7578 29.7953C44.6579 30.0563 45.4847 30.681 45.9735 31.3751C46.2745 31.8135 46.1865 31.2421 46.3486 31.7751C46.3585 31.8117 46.1922 31.7484 46.2486 31.882C46.3777 32.1743 46.6072 32.7264 46.661 32.9551C46.7713 33.4017 46.7854 33.4681 46.8687 33.8863C46.9762 34.4572 46.9903 35.1255 47.053 35.7225C47.0666 35.8501 47.177 35.6727 47.209 35.8773C47.2424 36.0845 47.2495 36.6248 47.2227 36.8045C47.197 36.9852 47.1012 36.9097 47.08 36.9418C46.9018 37.2085 47.1504 37.8188 47.1545 37.9027C47.2367 39.3482 47.0159 40.569 46.9397 41.9034C46.881 42.916 46.866 43.9966 46.8221 44.9523C46.7807 45.8459 46.7217 46.6297 46.7158 47.4565C46.7148 47.7055 46.6986 47.9734 46.673 48.2269C46.6594 48.3546 46.8179 48.2202 46.8001 48.3789C46.5862 50.0578 45.9321 51.5287 45.1329 52.8778C45.0518 53.012 45.0351 52.776 44.9476 52.9061C44.4182 53.7134 43.4242 54.8372 43.5539 55.6028C43.1775 56.1282 42.702 56.7525 42.2678 57.1445C41.9878 57.3967 42.0987 57.0294 41.8681 57.4237C41.8155 57.5124 41.9909 57.4799 41.9045 57.6077C41.5407 58.1452 41.06 58.6683 40.6866 59.1915C40.6107 59.2981 40.7137 59.3414 40.7037 59.382C40.6139 59.7217 40.0751 59.9351 39.9843 60.0052C39.2991 60.5427 38.9024 61.0241 38.3166 61.5768C38.1818 61.7028 38.4385 61.657 38.3119 61.782C37.6455 62.4346 36.8902 63.0637 36.0962 63.554C35.9209 63.6609 36.004 63.453 35.9172 63.4983C35.5269 63.7001 35.579 63.9414 35.1818 64.1231C35.1001 64.1593 35.0909 64.0441 35.0712 64.0424C35.0256 64.038 34.9858 64.0411 34.9509 64.0498C34.7544 64.0976 34.7106 64.3368 34.6684 64.3669C34.0414 64.8233 33.4809 64.8605 32.8718 65.3051C32.7996 65.3585 33.0403 65.357 32.8338 65.5002C31.4555 66.4577 30.0261 67.51 28.6743 68.502C28.4641 68.6564 28.5433 68.4615 28.5229 68.4626C28.196 68.4877 28.2272 68.7958 28.1691 68.8577C27.7034 69.3432 27.0899 69.5944 26.9471 70.1239C25.6757 71.157 24.4829 72.2857 23.1983 73.3259C23.1314 73.372 23.109 73.4205 22.8975 73.4834C22.7811 73.5372 22.4143 73.4534 22.3153 73.2494C22.2201 73.0829 22.2334 73.0205 22.2245 72.958C22.2212 72.753 22.2476 72.6967 22.2679 72.5944C22.3106 72.4187 22.3583 72.2738 22.4085 72.1242C22.5094 71.8276 22.6165 71.5466 22.7257 71.2659C22.9446 70.7054 23.1726 70.1557 23.3971 69.6057C23.4103 69.5726 23.5125 69.6696 23.5383 69.6031C23.8398 68.8012 23.6081 68.8968 23.4882 68.3212C23.4709 68.245 23.5619 68.1129 23.6506 67.9985C23.73 67.897 23.8084 67.8033 23.8199 67.7871C23.9093 67.6602 24.0834 67.8158 24.1024 67.7717C24.2454 67.3872 23.6319 67.4251 23.6123 66.9533C23.6124 66.9379 23.7299 66.9955 23.7387 66.9536C23.7663 66.8208 23.7096 66.6999 23.7329 66.5688C23.7841 66.2721 24.065 66.0989 23.7884 65.6883C23.7508 65.6389 23.4385 65.8006 23.3327 65.3749C23.2961 65.1986 23.0186 64.4623 22.9416 64.248C22.873 64.0354 23.0376 64.1291 23.0359 64.1129C22.9161 63.4908 23.0691 63.6802 23.1281 63.2985C23.1781 62.9123 22.7529 63.2374 22.6424 63.1537C22.5332 63.0701 22.4191 62.6167 22.3972 62.4981C22.3768 62.3793 22.5103 62.4639 22.4799 62.3649C22.2711 61.7137 22.1066 62.2531 21.922 62.113C21.4856 61.7921 21.5887 61.251 21.3434 60.8408C21.2781 60.7319 21.2661 60.8676 21.1936 60.7811C20.9046 60.4369 20.8393 60.1474 20.4369 59.8137C20.3713 59.7589 19.932 59.5827 19.8969 59.2695C19.8919 59.2244 20.0358 59.2463 19.9305 59.084C19.7739 58.8417 19.4548 58.4322 19.229 58.2229C19.0613 58.067 19.1124 58.3689 18.9611 58.1205C18.8934 58.0099 19.1202 58.1258 18.987 57.9233C18.857 57.7234 18.4447 57.2725 18.2853 57.105C18.1257 56.9366 18.1224 57.1124 18.1037 57.1041C17.9919 57.0514 17.649 56.77 17.6215 56.7411C16.3909 55.4543 15.3213 54.1716 14.0579 52.9934C13.9222 52.8669 13.7864 52.7442 13.6456 52.6211C13.5319 52.5216 13.5178 52.6838 13.4995 52.6696C13.0853 52.3563 13.6152 52.3848 13.4283 52.0554C13.29 52.2817 13.1653 52.1013 12.8773 51.8752C12.7385 51.7667 12.7409 51.9056 12.7221 51.9023C12.4268 51.8387 12.4267 51.5714 12.4189 51.5096C12.3908 51.2828 12.1343 51.2866 12.1137 51.1336C12.0932 50.9816 12.3914 51.0554 12.1314 50.8214C11.9958 50.8238 12.0254 51.1794 11.8014 51.0288C10.958 50.4674 9.69792 49.0486 9.15123 48.4425C8.60033 47.8427 8.41625 47.6505 8.13708 47.2613C7.65118 46.5454 7.70343 46.9049 7.32189 46.4981C7.14601 46.2999 7.1738 46.1885 7.25326 46.1213C7.28668 46.0925 7.32933 46.0705 7.37075 46.0509C7.43274 46.0215 7.49173 45.9972 7.51348 45.9654C7.51592 45.9617 7.51786 45.9579 7.51926 45.9539C7.56136 45.8386 7.43411 45.8173 7.43063 45.7096C7.4274 45.6023 7.58719 45.7426 7.491 45.544C7.39595 45.3472 6.94616 44.9287 6.81896 44.9109C6.55471 44.8818 6.49866 45.2185 6.27591 44.6978C6.26216 44.6661 6.41958 44.7012 6.3619 44.5826C5.92145 43.6768 5.37787 42.7705 4.94189 41.8646C4.88359 41.7422 5.05641 41.7813 5.02407 41.7098C4.6783 40.9413 4.63608 41.3068 4.20207 41.0252C4.53766 40.9601 4.57824 40.6428 4.30174 40.0841C4.13694 39.7394 4.04366 39.8702 3.84951 39.675C3.7919 39.62 3.78245 39.3295 3.70578 39.3079C3.45436 39.2254 3.2804 39.5645 3.19132 38.8448C3.18923 38.814 3.32611 38.8825 3.31076 38.7789C3.24378 38.0999 3.01385 37.9954 3.11692 37.2245C3.21339 36.6235 3.6864 35.7565 3.91027 35.1821C4.25052 35.3121 4.36604 34.7305 4.20162 34.4314C4.28181 34.2122 4.34696 34.0097 4.4239 33.7812C4.49646 33.5679 4.61337 33.3891 4.72949 33.2456C4.82063 33.1358 4.85286 33.2736 4.87243 33.2654C5.1738 33.1522 5.09942 32.8726 5.15261 32.7962C5.74233 32.0062 6.459 31.6548 7.05562 30.9504C7.0768 30.9258 6.96176 30.6938 7.26984 30.6903C7.28947 30.6914 7.121 30.9643 7.46613 30.7127C7.81249 30.4597 8.53896 30.1052 8.96516 29.6817C9.06768 29.5788 9.25913 29.2069 9.59166 29.186C9.63606 29.1836 9.63915 29.2675 9.70785 29.2717C9.92837 29.2844 9.87673 29.0153 10.1707 29.0895C10.466 29.1635 10.9161 29.0788 11.3561 28.6619C11.3705 28.649 11.3933 28.4042 11.5591 28.3183C11.8252 28.1799 12.219 28.0245 12.497 27.8898C12.632 27.8243 12.4913 27.7524 12.5138 27.739C13.3927 27.2656 14.1125 27.0235 15.1954 26.9661C15.2904 26.9689 15.4955 26.9164 15.727 26.9743C15.9376 27.0276 16.1551 27.1009 16.3086 27.2316C16.6412 27.5202 16.0284 27.9374 16.9545 28.1512C17.314 28.2377 18.103 27.7139 18.527 28.4084C19.7632 28.9668 20.482 30.0219 21.2875 31.0783C21.3246 31.126 21.609 31.1748 21.6803 31.3063C21.7802 31.4913 21.7481 31.6471 21.8127 31.7829C22.0809 32.3564 22.4034 32.8473 22.6348 33.4177C22.7201 33.6296 22.5913 33.5956 22.6936 33.8555C22.7933 34.1112 22.9937 34.2344 23.0672 34.6043C23.1235 34.8877 22.958 35.2493 23.0592 35.6145C23.1494 35.586 23.219 35.5951 23.2807 35.6361L23.2767 35.624C23.39 35.7119 23.4612 35.915 23.5836 36.198C23.6191 36.2799 23.6906 36.1644 23.7123 36.202C23.8027 36.3556 23.7609 36.5281 23.8503 36.6738C23.8719 36.7094 23.9657 36.6902 23.9885 36.7183C24.1884 36.9585 24.0634 37.4506 24.0389 37.5322C23.9506 37.8496 24.0943 37.9658 24.0719 38.2001C24.048 38.4325 23.9317 38.1074 23.9343 38.3732C23.9388 38.8823 24.0069 39.5144 24.0392 40.0465C24.0421 40.0934 24.0465 40.1385 24.052 40.1819C24.0901 40.4186 24.1888 40.2324 24.1971 40.266C24.2999 40.7045 24.5328 41.1739 24.8887 41.1616C24.6725 41.8618 25.1279 41.2989 25.5475 41.8097C25.5813 41.8517 25.4314 42.1309 25.2522 42.0431C25.0722 41.954 24.8943 41.6944 24.6307 41.5448C24.5722 41.5225 24.0605 41.3975 24.0033 41.3358C23.5731 40.9565 24.0077 40.6608 24.0181 40.6439C24.1057 40.4404 24.0251 40.2474 23.951 40.0523C23.8949 39.9231 23.8229 39.8151 23.8097 39.765C23.6693 39.2314 23.6852 38.7689 23.5523 38.3325C23.4649 38.0474 23.1588 38.0678 23.1308 37.8437C23.0299 37.1039 23.3808 36.7404 22.8438 36.1325C22.7428 36.0199 22.5174 36.1838 22.5306 35.832L22.5547 35.9061C22.5513 35.8517 22.5521 35.7853 22.5581 35.7047C22.5602 35.6628 22.6402 35.1966 22.4086 35.0205C22.3798 34.9993 22.2897 35.0354 22.2677 35.0015C22.124 34.7793 22.1265 34.5765 21.985 34.329C21.8402 34.0736 21.6562 33.7808 21.5534 33.4698C21.4941 33.2878 21.5487 32.976 21.5502 32.8761C21.5495 32.5757 21.2374 32.4202 21.298 32.2026C21.3581 31.9836 21.7221 32.1656 21.6015 31.7265C21.3718 31.8319 21.1266 31.9228 20.8922 32.0229C20.4559 31.2101 20.0195 30.4304 19.3714 29.8576C19.2905 29.7871 19.2812 29.9603 19.1936 29.89C18.8262 29.5998 18.5343 29.2862 18.0582 29.0707C17.6906 28.9057 17.2203 28.8497 16.7989 28.7143C16.6609 28.3426 15.9941 28.188 15.536 27.9881C15.4447 27.9481 15.4166 27.9087 15.3898 27.8697C15.3994 27.8513 15.4069 27.8317 15.4004 27.8188C15.2439 27.7053 15.289 27.9723 15.2432 28.0106C14.9535 28.207 14.7523 27.6562 14.1838 27.851C14.1553 27.8588 13.8874 28.2847 13.8513 28.3219C13.5801 28.5662 13.7586 28.2429 13.5476 28.3058C13.1698 28.4217 12.872 28.4792 12.4894 28.7727C12.3725 28.8614 12.1709 29.1824 11.8609 29.1836C11.8204 29.1837 11.7887 29.0851 11.7606 29.0937C11.2512 29.263 11.401 29.5488 11.1979 29.7926C10.9984 30.0348 10.4914 30.089 10.3775 30.0861C10.0807 30.0785 10.5006 29.9258 10.5035 29.9058C10.5365 29.6598 10.2649 29.8653 10.0365 29.9922C9.83624 29.7477 9.53773 29.9635 9.80125 30.1251C9.83033 30.1424 9.98467 30.0081 10.0365 29.9922C10.0088 30.3744 9.70238 30.6199 9.17764 30.6312C8.93116 30.6383 9.00076 30.3947 8.51839 30.8065C8.3005 30.9949 8.51757 31.1042 8.35028 31.2995C7.97225 31.743 7.26713 32.0406 6.84971 32.4485C6.69741 32.5975 6.93024 32.5499 6.83071 32.6538C6.57484 32.9245 6.26921 33.092 6.05852 33.3853C6.03982 33.412 6.18317 33.4385 6.11077 33.5199C5.87226 33.7837 5.6432 34.1009 5.61529 34.1648C5.44213 34.6397 5.25895 35.1004 5.07753 35.611C4.9179 36.063 4.6944 36.8775 4.58111 37.2732C4.34227 37.9638 4.27271 38.6495 4.59291 39.2826C4.78976 39.6705 4.86493 39.523 5.0226 39.6609C5.32004 39.9072 5.38263 40.6261 5.39195 40.7334C5.38987 40.7339 5.17514 40.405 5.22028 40.6184C5.16381 40.7896 5.38944 40.73 5.39195 40.7334C5.39554 40.8036 5.76604 41.5046 5.87216 41.6357C5.92868 41.7065 6.00427 41.6039 6.03197 41.6421C6.66631 42.5118 7.26097 43.4327 7.78468 44.4098C7.79283 44.4279 7.66522 44.47 7.68582 44.5119C7.89437 44.9392 8.11667 45.1729 8.37389 45.4499C8.46204 45.5366 8.55493 45.6227 8.6508 45.7168C8.98778 46.0456 9.20026 46.3535 9.21801 46.7225C9.47813 46.9874 9.77735 47.4533 9.95874 47.7235C10.139 47.9934 10.3532 47.8445 10.3758 47.8603C11.1103 48.3589 11.3877 48.812 12.0583 49.458C12.3763 49.7644 13.0566 50.3315 13.433 50.6382C13.7319 50.8812 13.8604 51.0805 14.1474 51.2944C14.1859 51.3231 14.2277 51.207 14.2414 51.2138C14.6239 51.3837 14.2955 51.4577 14.3216 51.5497C14.4027 51.8398 14.4638 52.0242 14.7581 52.2572C14.8024 52.2923 14.8521 52.3285 14.9079 52.3664C15.0057 52.4326 15.5271 52.3782 15.6973 52.5099C15.9177 52.6812 15.7429 52.7115 15.9752 52.8883C15.995 52.9036 16.0527 52.8363 16.1786 52.9643C16.763 53.5569 17.3713 54.235 17.9826 54.8523C18.0657 54.9367 18.0606 54.73 18.1823 54.8505C18.7553 55.4185 19.3584 56.0706 19.8365 56.7039C19.9538 56.8601 19.7992 56.8345 19.8055 56.8853C19.8443 57.1934 20.28 57.303 20.3232 57.3457C21.3644 58.3669 21.8863 59.3821 22.8286 60.5597C22.881 60.6222 23.4641 61.0054 23.4147 61.3785C23.4124 61.4043 23.3527 61.7664 23.6208 61.9005C23.6375 61.909 23.6562 61.6928 23.7999 61.9673C23.9428 62.2411 24.2587 62.6518 24.3208 63.1018C24.3432 63.2495 24.2573 63.6284 24.5895 63.9418C24.612 63.9523 25.2513 64.4225 25.0333 64.746C24.9959 64.799 24.6902 64.8482 24.9766 65.2887C25.031 65.3759 25.0567 65.1847 25.1614 65.4267C25.3209 65.7988 25.3314 66.3409 25.5012 66.8441C25.5328 66.9283 25.7641 67.3227 25.5831 67.6384C25.5549 67.6864 25.4551 67.5882 25.4334 67.7518C25.4108 67.9138 25.3878 68.0768 25.3615 68.2404C25.2607 68.8499 25.1465 69.4077 24.9393 69.9161C24.8463 70.1408 24.7178 69.9745 24.6016 70.1985C24.4854 70.4231 24.2906 70.8767 24.2829 71.1414C24.2755 71.4064 24.6223 71.2326 24.5204 71.5984C24.4265 71.9354 24.3207 72.2644 24.2223 72.5694C24.1738 72.72 24.1258 72.8713 24.0974 72.9728C24.0838 73.0075 24.0784 73.0918 24.0875 72.9393C24.0847 72.8849 24.101 72.8399 24.0461 72.6089C24.0313 72.5538 24.0104 72.49 23.9778 72.417C23.9338 72.3185 23.8623 72.1927 23.7503 72.0697C23.5301 71.8102 23.1135 71.6366 22.8232 71.6367C22.5037 71.6334 22.4055 71.6901 22.3108 71.7202C22.2214 71.7546 22.1551 71.7928 22.1234 71.8123C22.0636 71.8495 22.0337 71.8747 22.0159 71.89C22.7292 71.3406 23.4576 70.7811 24.1613 70.1778C24.3441 70.0211 24.1297 70.0806 24.3935 69.8448C25.3607 68.9744 27.0255 67.3918 28.0622 66.8222C28.8861 66.3665 28.06 67.1989 28.6523 66.8063C28.9363 66.6186 29.0319 66.1412 29.0913 66.0823C29.6684 65.5043 30.2057 65.2786 30.7753 64.8188C30.8936 64.7238 30.698 64.7053 30.8 64.6255C31.1465 64.3529 31.563 64.1375 31.9088 63.8966C32.0641 63.7883 31.9813 63.7255 32.1325 63.6362C32.4915 63.4236 32.8278 63.2614 33.2237 63.1288C33.2595 63.1169 33.1103 63.3496 33.375 63.1949C33.6229 63.0502 33.919 62.913 34.2154 62.7544C34.3931 62.6608 34.5866 62.5328 34.7381 62.3843C34.8477 62.2765 34.7285 62.0898 35.0777 62.0302C35.1507 62.0163 35.2436 62.2854 35.4116 61.8685C35.4422 61.7999 35.75 61.1583 36.1237 61.1006C36.2211 61.0876 36.5299 61.1119 36.652 60.9564C36.6673 60.9354 36.5117 60.9132 36.6193 60.8013C37.0028 60.4048 37.4333 60.0099 37.8082 59.576C37.9087 59.4592 37.6602 59.5346 37.8112 59.3643C38.2245 58.8979 38.7749 58.3446 39.2069 57.9045C39.3655 57.7435 39.3416 57.9287 39.3608 57.9237C39.6725 57.8417 39.5868 57.5605 39.6323 57.4841C39.9168 57.0104 40.2677 56.758 40.5531 56.3397C40.6316 56.2245 40.4783 56.231 40.4869 56.2027C40.5797 55.9134 40.6177 56.2109 40.7463 56.0804C41.1068 55.7146 41.4334 55.2476 41.712 54.8156C41.8137 54.6571 41.5821 54.7544 41.6741 54.6135C42.2166 53.7761 42.767 52.9048 43.2811 52.0933C43.3779 51.9405 43.4178 52.0896 43.4566 52.0674C43.7259 51.9162 43.6922 51.4662 43.7076 51.3818C43.7859 50.9844 43.9312 50.8852 44.0488 50.5605C44.4049 49.5662 44.7565 48.4117 44.7661 47.4724C44.7718 46.7238 44.8036 46.0054 44.8386 45.3641C44.9659 43.0892 45.2106 41.3599 45.2738 39.2579C45.2777 39.1254 45.1329 39.2531 45.1344 39.1392C45.157 37.6611 45.2338 36.2124 45.0224 34.861C45.0048 34.7519 44.895 34.9257 44.862 34.754C44.7925 34.3968 44.7153 33.9704 44.6621 33.6406C44.636 33.4811 44.8067 33.6555 44.7769 33.4944C44.7049 33.1148 44.5549 32.7516 44.3563 32.4976C44.2719 32.3924 44.2747 32.6312 44.177 32.4971C43.9095 32.1517 43.6289 31.9698 43.206 31.8475C42.5093 31.6722 41.3473 31.6051 40.3191 31.5341C40.196 31.5265 40.0848 31.2551 39.8266 31.322C39.8113 31.3992 39.8174 31.4888 39.8136 31.5707C37.3195 31.7713 34.7626 32.1625 32.6957 33.2968C32.6108 33.345 32.828 33.3874 32.6667 33.4807C32.0504 33.8422 31.5325 34.2757 31.1065 34.742C30.968 34.8813 30.7631 35.1852 30.5691 35.4997C30.5122 35.5943 30.2971 35.4371 30.2027 35.7687C30.1844 35.8256 30.0318 36.3308 30.0419 36.4811C30.0439 36.5014 30.1879 36.449 30.1365 36.6111C29.8369 37.5593 29.5444 38.5956 29.2517 39.5879C29.2045 39.7478 29.1177 39.5475 29.0831 39.6614C28.8376 40.4742 28.7643 41.3996 28.5273 42.177C28.3699 42.6978 28.1818 42.471 27.9272 42.7273C27.8907 42.7644 27.8433 43.0994 27.717 43.0993C27.3968 43.1068 27.0718 42.902 26.7281 42.9287C26.6534 42.9306 26.6792 43.4157 26.5347 43.118C26.5246 43.0966 26.5082 42.7422 26.4605 42.6523C26.4273 42.5886 26.2862 42.6777 26.2497 42.5506C26.2141 42.419 26.338 42.3068 26.306 42.0981C26.2734 41.893 26.1153 41.9553 26.1609 41.5577ZM10.8098 48.9319C10.9459 49.2278 11.2842 48.9299 10.9744 48.7863C10.959 48.7796 10.8026 48.9168 10.8098 48.9319ZM20.2434 30.2696C20.151 29.8486 19.7569 29.8703 19.8231 30.1611C19.8762 30.4441 20.2668 30.394 20.2434 30.2696ZM22.3213 33.686C22.2819 33.1999 21.6704 33.3908 21.9826 33.7881C22.0002 33.8107 22.3233 33.714 22.3213 33.686ZM28.0731 41.3842C28.0664 41.387 28.0198 41.6268 28.0248 41.6341C28.1437 41.7855 28.2364 41.3069 28.0731 41.3842ZM23.6976 37.4862C23.7571 37.328 23.575 36.9409 23.5066 37.138C23.4525 37.2947 23.6248 37.6808 23.6976 37.4862ZM21.5141 60.7031C21.5112 60.7102 21.6093 60.8588 21.6381 60.8343C21.7304 60.7535 21.559 60.5724 21.5141 60.7031ZM26.4651 43.5312C26.3872 43.063 26.2617 42.6648 26.2668 42.4644C26.2589 42.2743 26.4843 42.2615 26.7568 42.856C26.8481 43.0582 26.3817 42.5064 26.4758 42.7789C26.6265 43.2298 27.0232 43.5162 26.8581 44.0526C26.8352 44.1293 26.4877 43.5658 26.4641 43.5297C26.4644 43.5302 26.4648 43.5307 26.4651 43.5312ZM10.5679 49.444C10.5681 49.4524 10.7437 49.6239 10.7516 49.6232C10.9453 49.609 10.5934 49.2652 10.5679 49.444ZM23.3209 70.2609C23.3059 70.2693 23.1158 70.8026 23.1205 70.823C23.2476 71.1786 23.6336 70.0976 23.3209 70.2609ZM3.92271 35.176C3.87597 34.8778 3.96406 34.5719 4.20105 34.4325C4.10899 34.6746 4.01915 34.9287 3.92271 35.176Z" fill="black"/>
</svg>
